<?xml version="1.0" encoding="UTF-8"?>
<svg width="700pt" height="700pt" version="1.1" viewBox="0 0 700 700" xmlns="http://www.w3.org/2000/svg" xmlns:xlink="http://www.w3.org/1999/xlink">
 <defs>
  <symbol id="x" overflow="visible">
   <path d="m3.6562-0.21875c-0.1875 0.09375-0.38672 0.16797-0.59375 0.21875-0.19922 0.050781-0.40625 0.078125-0.625 0.078125-0.66797 0-1.1992-0.17969-1.5938-0.54688-0.38672-0.375-0.57812-0.87891-0.57812-1.5156 0-0.64453 0.19141-1.1484 0.57812-1.5156 0.39453-0.375 0.92578-0.5625 1.5938-0.5625 0.21875 0 0.42578 0.027344 0.625 0.078125 0.20703 0.054687 0.40625 0.125 0.59375 0.21875v0.82812c-0.1875-0.125-0.375-0.21875-0.5625-0.28125-0.17969-0.0625-0.37109-0.09375-0.57812-0.09375-0.36719 0-0.65625 0.12109-0.875 0.35938-0.21094 0.23047-0.3125 0.55469-0.3125 0.96875 0 0.40625 0.10156 0.73047 0.3125 0.96875 0.21875 0.23047 0.50781 0.34375 0.875 0.34375 0.20703 0 0.39844-0.023437 0.57812-0.078125 0.1875-0.0625 0.375-0.16016 0.5625-0.29688z"/>
  </symbol>
  <symbol id="d" overflow="visible">
   <path d="m2.6875-2.1719c-0.085938-0.039063-0.16797-0.070313-0.25-0.09375-0.085938-0.019531-0.16797-0.03125-0.25-0.03125-0.25 0-0.44531 0.085937-0.57812 0.25-0.125 0.15625-0.1875 0.38281-0.1875 0.67188v1.375h-0.96875v-2.9844h0.96875v0.48438c0.11328-0.19531 0.25-0.33594 0.40625-0.42188 0.16406-0.09375 0.35938-0.14062 0.57812-0.14062h0.10938c0.039063 0 0.09375 0.007812 0.15625 0.015625z"/>
  </symbol>
  <symbol id="b" overflow="visible">
   <path d="m3.4375-1.5v0.26562h-2.2344c0.03125 0.23047 0.11328 0.40234 0.25 0.51562 0.13281 0.10547 0.32812 0.15625 0.57812 0.15625 0.20703 0 0.41406-0.023438 0.625-0.078125 0.20703-0.0625 0.42188-0.15625 0.64062-0.28125v0.73438c-0.21875 0.09375-0.44531 0.16406-0.67188 0.20312-0.23047 0.039062-0.45312 0.0625-0.67188 0.0625-0.54297 0-0.96484-0.13281-1.2656-0.40625-0.30469-0.28125-0.45312-0.67188-0.45312-1.1719 0-0.47656 0.14453-0.85938 0.4375-1.1406 0.30078-0.28125 0.70703-0.42188 1.2188-0.42188 0.46875 0 0.84375 0.14062 1.125 0.42188s0.42188 0.66406 0.42188 1.1406zm-0.96875-0.32812c0-0.17578-0.058594-0.31641-0.17188-0.42188-0.10547-0.11328-0.24219-0.17188-0.40625-0.17188-0.1875 0-0.33984 0.054687-0.45312 0.15625-0.11719 0.10547-0.1875 0.25-0.21875 0.4375z"/>
  </symbol>
  <symbol id="a" overflow="visible">
   <path d="m1.7969-1.3438c-0.19922 0-0.35156 0.039062-0.45312 0.10938-0.09375 0.0625-0.14062 0.16406-0.14062 0.29688 0 0.11719 0.035156 0.21094 0.10938 0.28125 0.082031 0.0625 0.19531 0.09375 0.34375 0.09375 0.17578 0 0.32812-0.0625 0.45312-0.1875s0.1875-0.28516 0.1875-0.48438v-0.10938zm1.4688-0.35938v1.7031h-0.96875v-0.4375c-0.125 0.17969-0.27344 0.30859-0.4375 0.39062-0.15625 0.082031-0.35156 0.125-0.57812 0.125-0.3125 0-0.57031-0.085938-0.76562-0.26562-0.1875-0.1875-0.28125-0.42188-0.28125-0.70312 0-0.35156 0.11719-0.61328 0.35938-0.78125 0.23828-0.16406 0.61719-0.25 1.1406-0.25h0.5625v-0.0625c0-0.15625-0.0625-0.26562-0.1875-0.32812-0.11719-0.070312-0.29688-0.10938-0.54688-0.10938-0.21094 0-0.40234 0.023437-0.57812 0.0625-0.17969 0.042969-0.33984 0.10156-0.48438 0.17188v-0.71875c0.19531-0.050781 0.39844-0.085938 0.60938-0.10938 0.20703-0.03125 0.41406-0.046875 0.625-0.046875 0.53906 0 0.92969 0.10938 1.1719 0.32812 0.23828 0.21094 0.35938 0.55469 0.35938 1.0312z"/>
  </symbol>
  <symbol id="c" overflow="visible">
   <path d="m1.5-3.8438v0.85938h0.98438v0.67188h-0.98438v1.2812c0 0.13672 0.023438 0.23047 0.078125 0.28125 0.0625 0.042969 0.17578 0.0625 0.34375 0.0625h0.48438v0.6875h-0.8125c-0.38672 0-0.65625-0.078125-0.8125-0.23438s-0.23438-0.42188-0.23438-0.79688v-1.2812h-0.46875v-0.67188h0.46875v-0.85938z"/>
  </symbol>
  <symbol id="l" overflow="visible">
   <path d="m2.5-2.5469v-1.6094h0.95312v4.1562h-0.95312v-0.4375c-0.13672 0.17969-0.28125 0.30859-0.4375 0.39062-0.15625 0.082031-0.33984 0.125-0.54688 0.125-0.375 0-0.68359-0.14453-0.92188-0.4375-0.23047-0.28906-0.34375-0.67188-0.34375-1.1406 0-0.45703 0.11328-0.83203 0.34375-1.125 0.23828-0.28906 0.54688-0.4375 0.92188-0.4375 0.19531 0 0.375 0.042969 0.53125 0.125 0.16406 0.085938 0.31641 0.21484 0.45312 0.39062zm-0.64062 1.9375c0.20703 0 0.36328-0.070313 0.46875-0.21875 0.11328-0.15625 0.17188-0.37891 0.17188-0.67188 0-0.28125-0.058594-0.49219-0.17188-0.64062-0.10547-0.15625-0.26172-0.23438-0.46875-0.23438-0.19922 0-0.35547 0.078125-0.46875 0.23438-0.10547 0.14844-0.15625 0.35938-0.15625 0.64062 0 0.29297 0.050781 0.51562 0.15625 0.67188 0.11328 0.14844 0.26953 0.21875 0.46875 0.21875z"/>
  </symbol>
  <symbol id="k" overflow="visible">
   <path d="m2.0469-0.60938c0.20703 0 0.36328-0.070313 0.46875-0.21875 0.11328-0.15625 0.17188-0.37891 0.17188-0.67188 0-0.28125-0.058594-0.49219-0.17188-0.64062-0.10547-0.15625-0.26172-0.23438-0.46875-0.23438-0.19922 0-0.35547 0.078125-0.46875 0.23438-0.10547 0.14844-0.15625 0.35938-0.15625 0.64062 0 0.29297 0.050781 0.51562 0.15625 0.67188 0.11328 0.14844 0.26953 0.21875 0.46875 0.21875zm-0.625-1.9375c0.125-0.17578 0.26562-0.30469 0.42188-0.39062 0.16406-0.082031 0.35156-0.125 0.5625-0.125 0.36328 0 0.66406 0.14844 0.90625 0.4375 0.23828 0.29297 0.35938 0.66797 0.35938 1.125 0 0.46875-0.12109 0.85156-0.35938 1.1406-0.24219 0.29297-0.54297 0.4375-0.90625 0.4375-0.21094 0-0.39844-0.042969-0.5625-0.125-0.15625-0.082031-0.29688-0.21094-0.42188-0.39062v0.4375h-0.96875v-4.1562h0.96875z"/>
  </symbol>
  <symbol id="j" overflow="visible">
   <path d="m0.0625-2.9844h0.95312l0.8125 2.0156 0.6875-2.0156h0.95312l-1.2656 3.2656c-0.125 0.33203-0.27344 0.56641-0.4375 0.70312-0.16797 0.13281-0.39062 0.20312-0.67188 0.20312h-0.54688v-0.64062h0.29688c0.16406 0 0.28516-0.027344 0.35938-0.078125 0.070313-0.054688 0.12891-0.14062 0.17188-0.26562l0.03125-0.09375z"/>
  </symbol>
  <symbol id="i" overflow="visible">
   <path d="m2.7969-2.8906v0.71875c-0.21094-0.082031-0.40625-0.14453-0.59375-0.1875-0.1875-0.039063-0.37109-0.0625-0.54688-0.0625-0.17969 0-0.3125 0.023437-0.40625 0.0625-0.085938 0.042969-0.125 0.10938-0.125 0.20312 0 0.085938 0.03125 0.14844 0.09375 0.1875 0.070312 0.042969 0.19531 0.074219 0.375 0.09375l0.15625 0.015625c0.48828 0.0625 0.81641 0.16797 0.98438 0.3125 0.17578 0.13672 0.26562 0.35938 0.26562 0.67188s-0.12109 0.55469-0.35938 0.71875c-0.23047 0.15625-0.57812 0.23438-1.0469 0.23438-0.19922 0-0.40625-0.015625-0.625-0.046875-0.21094-0.03125-0.42188-0.078125-0.64062-0.14062v-0.71875c0.1875 0.085937 0.37891 0.15234 0.57812 0.20312 0.20703 0.042969 0.41406 0.0625 0.625 0.0625 0.1875 0 0.32812-0.023438 0.42188-0.078125 0.09375-0.050781 0.14062-0.125 0.14062-0.21875s-0.039062-0.16016-0.10938-0.20312c-0.0625-0.039062-0.1875-0.070312-0.375-0.09375l-0.17188-0.015625c-0.42969-0.050781-0.73047-0.14844-0.90625-0.29688-0.16797-0.14453-0.25-0.36328-0.25-0.65625 0-0.32031 0.10938-0.55469 0.32812-0.70312 0.21875-0.15625 0.55078-0.23438 1-0.23438 0.17578 0 0.35938 0.015625 0.54688 0.046875 0.19531 0.023437 0.41016 0.0625 0.64062 0.125z"/>
  </symbol>
  <symbol id="h" overflow="visible">
   <path d="m0.42188-1.1719v-1.8125h0.96875v0.29688 0.60938 0.48438c0 0.24219 0.003906 0.41797 0.015625 0.53125 0.007812 0.10547 0.03125 0.17969 0.0625 0.21875 0.039062 0.0625 0.09375 0.11719 0.15625 0.15625 0.0625 0.03125 0.13281 0.046875 0.21875 0.046875 0.19531 0 0.35156-0.078125 0.46875-0.23438 0.11328-0.15625 0.17188-0.36719 0.17188-0.64062v-1.4688h0.95312v2.9844h-0.95312v-0.4375c-0.14844 0.17969-0.30469 0.30859-0.46875 0.39062-0.15625 0.082031-0.33594 0.125-0.53125 0.125-0.34375 0-0.60938-0.10156-0.79688-0.3125-0.17969-0.21875-0.26562-0.53125-0.26562-0.9375z"/>
  </symbol>
  <symbol id="g" overflow="visible">
   <path d="m1.4219-0.4375v1.5781h-0.96875v-4.125h0.96875v0.4375c0.125-0.17578 0.26562-0.30469 0.42188-0.39062 0.16406-0.082031 0.35156-0.125 0.5625-0.125 0.36328 0 0.66406 0.14844 0.90625 0.4375 0.23828 0.29297 0.35938 0.66797 0.35938 1.125 0 0.46875-0.12109 0.85156-0.35938 1.1406-0.24219 0.29297-0.54297 0.4375-0.90625 0.4375-0.21094 0-0.39844-0.042969-0.5625-0.125-0.15625-0.082031-0.29688-0.21094-0.42188-0.39062zm0.625-1.9375c-0.19922 0-0.35547 0.078125-0.46875 0.23438-0.10547 0.14844-0.15625 0.35938-0.15625 0.64062 0 0.29297 0.050781 0.51562 0.15625 0.67188 0.11328 0.14844 0.26953 0.21875 0.46875 0.21875 0.20703 0 0.36328-0.070313 0.46875-0.21875 0.11328-0.15625 0.17188-0.37891 0.17188-0.67188 0-0.28125-0.058594-0.49219-0.17188-0.64062-0.10547-0.15625-0.26172-0.23438-0.46875-0.23438z"/>
  </symbol>
  <symbol id="f" overflow="visible">
   <path d="m0.45312-4.1562h0.96875v4.1562h-0.96875z"/>
  </symbol>
  <symbol id="w" overflow="visible">
   <path d="m0.45312-4.1562h0.96875v2.2656l1.0938-1.0938h1.1094l-1.4531 1.3594 1.5625 1.625h-1.1562l-1.1562-1.25v1.25h-0.96875z"/>
  </symbol>
  <symbol id="v" overflow="visible">
   <path d="m0.45312-2.9844h0.96875v2.9844h-0.96875zm0-1.1719h0.96875v0.78125h-0.96875z"/>
  </symbol>
  <symbol id="u" overflow="visible">
   <path d="m0.1875-2.9844h0.9375l0.5 2.0625 0.5-2.0625h0.79688l0.5 2.0312 0.51562-2.0312h0.92188l-0.78125 2.9844h-1.0469l-0.5-2.0625-0.5 2.0625h-1.0469z"/>
  </symbol>
  <symbol id="t" overflow="visible">
   <path d="m2.4219-4.1562v0.625h-0.51562c-0.13672 0-0.23438 0.027344-0.29688 0.078125-0.054687 0.054687-0.078125 0.13672-0.078125 0.25v0.21875h0.82812v0.67188h-0.82812v2.3125h-0.95312v-2.3125h-0.46875v-0.67188h0.46875v-0.21875c0-0.32031 0.085937-0.5625 0.26562-0.71875 0.1875-0.15625 0.47266-0.23438 0.85938-0.23438z"/>
  </symbol>
  <symbol id="e" overflow="visible">
   <path d="m1.875-2.375c-0.21094 0-0.37109 0.078125-0.48438 0.23438-0.10547 0.14844-0.15625 0.35938-0.15625 0.64062 0 0.29297 0.050781 0.51562 0.15625 0.67188 0.11328 0.14844 0.27344 0.21875 0.48438 0.21875 0.20703 0 0.36719-0.070313 0.48438-0.21875 0.11328-0.15625 0.17188-0.37891 0.17188-0.67188 0-0.28125-0.058594-0.49219-0.17188-0.64062-0.11719-0.15625-0.27734-0.23438-0.48438-0.23438zm0-0.6875c0.51953 0 0.92188 0.14062 1.2031 0.42188 0.28906 0.27344 0.4375 0.65234 0.4375 1.1406 0 0.5-0.14844 0.89062-0.4375 1.1719-0.28125 0.27344-0.68359 0.40625-1.2031 0.40625-0.51172 0-0.91406-0.13281-1.2031-0.40625-0.29297-0.28125-0.4375-0.67188-0.4375-1.1719 0-0.48828 0.14453-0.86719 0.4375-1.1406 0.28906-0.28125 0.69141-0.42188 1.2031-0.42188z"/>
  </symbol>
  <symbol id="s" overflow="visible">
   <path d="m3.2344-2.5c0.11328-0.17578 0.25391-0.3125 0.42188-0.40625 0.16406-0.10156 0.35156-0.15625 0.5625-0.15625 0.33203 0 0.58594 0.10938 0.76562 0.32812 0.1875 0.21094 0.28125 0.51172 0.28125 0.90625v1.8281h-0.96875v-1.5625c0.007813-0.019531 0.015625-0.039062 0.015625-0.0625v-0.10938c0-0.21875-0.03125-0.375-0.09375-0.46875s-0.16406-0.14062-0.29688-0.14062c-0.1875 0-0.33594 0.078125-0.4375 0.23438-0.09375 0.14844-0.14062 0.35938-0.14062 0.64062v1.4688h-0.96875v-1.5625c0-0.33203-0.03125-0.54688-0.09375-0.64062-0.054688-0.09375-0.15234-0.14062-0.29688-0.14062-0.17969 0-0.32031 0.078125-0.42188 0.23438-0.09375 0.14844-0.14062 0.35938-0.14062 0.64062v1.4688h-0.96875v-2.9844h0.96875v0.4375c0.11328-0.17578 0.24219-0.30469 0.39062-0.39062 0.15625-0.082031 0.32812-0.125 0.51562-0.125 0.20703 0 0.39062 0.054688 0.54688 0.15625 0.15625 0.09375 0.27344 0.23047 0.35938 0.40625z"/>
  </symbol>
  <symbol id="r" overflow="visible">
   <path d="m3.4688-1.8281v1.8281h-0.96875v-1.3906c0-0.25781-0.007812-0.4375-0.015625-0.53125-0.011719-0.10156-0.03125-0.17578-0.0625-0.21875-0.03125-0.0625-0.085937-0.10938-0.15625-0.14062-0.0625-0.039062-0.13281-0.0625-0.20312-0.0625-0.21094 0-0.37109 0.078125-0.48438 0.23438-0.10547 0.15625-0.15625 0.37109-0.15625 0.64062v1.4688h-0.96875v-4.1562h0.96875v1.6094c0.13281-0.17578 0.28516-0.30469 0.45312-0.39062 0.16406-0.082031 0.34375-0.125 0.53125-0.125 0.34375 0 0.60156 0.10938 0.78125 0.32812 0.1875 0.21094 0.28125 0.51172 0.28125 0.90625z"/>
  </symbol>
  <symbol id="q" overflow="visible">
   <path d="m0.5-3.9844h1.1562l1.4375 2.7344v-2.7344h0.98438v3.9844h-1.1562l-1.4375-2.7344v2.7344h-0.98438z"/>
  </symbol>
  <symbol id="p" overflow="visible">
   <path d="m3.4688-1.8281v1.8281h-0.96875v-1.3906c0-0.25781-0.007812-0.4375-0.015625-0.53125-0.011719-0.10156-0.03125-0.17578-0.0625-0.21875-0.03125-0.0625-0.085937-0.10938-0.15625-0.14062-0.0625-0.039062-0.13281-0.0625-0.20312-0.0625-0.21094 0-0.37109 0.078125-0.48438 0.23438-0.10547 0.15625-0.15625 0.37109-0.15625 0.64062v1.4688h-0.96875v-2.9844h0.96875v0.4375c0.13281-0.17578 0.28516-0.30469 0.45312-0.39062 0.16406-0.082031 0.34375-0.125 0.53125-0.125 0.34375 0 0.60156 0.10938 0.78125 0.32812 0.1875 0.21094 0.28125 0.51172 0.28125 0.90625z"/>
  </symbol>
  <symbol id="o" overflow="visible">
   <path d="m0.5-3.9844h1.7031c0.50781 0 0.89844 0.11719 1.1719 0.34375 0.26953 0.21875 0.40625 0.53906 0.40625 0.95312 0 0.41797-0.13672 0.74219-0.40625 0.96875-0.27344 0.21875-0.66406 0.32812-1.1719 0.32812h-0.67188v1.3906h-1.0312zm1.0312 0.75v1.1094h0.5625c0.19531 0 0.34766-0.046875 0.45312-0.14062 0.11328-0.10156 0.17188-0.24219 0.17188-0.42188 0-0.17578-0.058594-0.3125-0.17188-0.40625-0.10547-0.09375-0.25781-0.14062-0.45312-0.14062z"/>
  </symbol>
  <symbol id="n" overflow="visible">
   <path d="m0.45312-2.9844h0.96875v2.9375c0 0.39453-0.10156 0.69531-0.29688 0.90625-0.1875 0.21875-0.46484 0.32812-0.82812 0.32812h-0.48438v-0.64062h0.17188c0.17578 0 0.29688-0.042969 0.35938-0.125 0.070312-0.074219 0.10938-0.23047 0.10938-0.46875zm0-1.1719h0.96875v0.78125h-0.96875z"/>
  </symbol>
  <symbol id="m" overflow="visible">
   <path d="m2.875-2.8906v0.76562c-0.125-0.082031-0.25781-0.14453-0.39062-0.1875-0.13672-0.039062-0.27344-0.0625-0.40625-0.0625-0.27344 0-0.48047 0.078125-0.625 0.23438-0.14844 0.15625-0.21875 0.37109-0.21875 0.64062 0 0.28125 0.070313 0.5 0.21875 0.65625 0.14453 0.15625 0.35156 0.23438 0.625 0.23438 0.14453 0 0.28516-0.019531 0.42188-0.0625 0.13281-0.039063 0.25781-0.10938 0.375-0.20312v0.78125c-0.14844 0.0625-0.29688 0.10156-0.45312 0.125-0.15625 0.03125-0.3125 0.046875-0.46875 0.046875-0.54297 0-0.96484-0.13281-1.2656-0.40625-0.30469-0.28125-0.45312-0.67188-0.45312-1.1719 0-0.48828 0.14844-0.86719 0.45312-1.1406 0.30078-0.28125 0.72266-0.42188 1.2656-0.42188 0.15625 0 0.3125 0.015625 0.46875 0.046875 0.15625 0.023437 0.30469 0.0625 0.45312 0.125z"/>
  </symbol>
 </defs>
 <g>
  <path d="m402.5 297.5v-35c0-2.3203-0.92188-4.5469-2.5625-6.1875s-3.8672-2.5625-6.1875-2.5625h-35c-4.832 0-8.75 3.918-8.75 8.75v35c0 2.3203 0.92188 4.5469 2.5625 6.1875s3.8672 2.5625 6.1875 2.5625h35c2.3203 0 4.5469-0.92188 6.1875-2.5625s2.5625-3.8672 2.5625-6.1875zm-17.5-8.75h-17.5v-17.5h17.5z"/>
  <path d="m140 455c5.4258-0.007812 10.719-1.6914 15.148-4.8242 4.4297-3.1367 7.7812-7.5625 9.5977-12.676h106.5c2.3203 0 4.5469-0.92188 6.1875-2.5625l35-35c0.83594 0.39844 1.6875 0.75 2.5586 1.0586v19.004h17.5v-19.004c7.0195-2.4805 12.656-7.8242 15.504-14.699 2.8477-6.8789 2.6445-14.641-0.56641-21.355l14.941-14.941h5.125v26.25h17.5v-26.25h8.75v26.25c0 2.9688 1.5039 5.7344 3.9961 7.3438l8.4609 5.4766c-4.0312 6.7539-4.8203 14.961-2.1484 22.355 2.6758 7.3945 8.5234 13.203 15.941 15.82v24.688l-33.082 41.348c-1.2422 1.5508-1.918 3.4805-1.918 5.4688v43.75h17.5v-40.68l33.082-41.352c1.2422-1.5508 1.918-3.4805 1.918-5.4688v-27.754c5.1445-1.832 9.5938-5.2188 12.73-9.6875l96.266 62.289c3.4648 2.2383 8.0195 1.7539 10.938-1.1602l26.25-26.25c0.03125-0.03125 0.054687-0.0625 0.082031-0.09375 0.070313-0.070312 0.13281-0.14844 0.20312-0.21875 0.16406-0.17969 0.31641-0.36328 0.46484-0.55469 0.066406-0.089843 0.13281-0.17578 0.19531-0.26562 0.14453-0.20703 0.28125-0.41406 0.40625-0.63281 0.042969-0.074219 0.09375-0.14844 0.13281-0.21875v0.003906c0.16016-0.29297 0.30469-0.58984 0.42969-0.89844 0.023438-0.058594 0.042969-0.12109 0.066406-0.18359 0.097657-0.25391 0.18359-0.50781 0.25391-0.76562 0.03125-0.10938 0.054687-0.21094 0.078125-0.31641 0.054687-0.23438 0.10156-0.46875 0.13672-0.70703 0.015626-0.10156 0.035157-0.20313 0.046876-0.30859 0.042968-0.33984 0.066406-0.68359 0.070312-1.0273v-157.5c0-5.6289-0.29688-11.254-0.89062-16.852v-0.007813c-3.5156-32.609-17.125-63.309-38.926-87.816-21.801-24.508-50.703-41.602-82.684-48.895v-30.18h-17.5v27.223c-30.598-3.4141-61.523 2.2031-88.965 16.156l-33.535-29.809v-50.074c7.8477-2.7773 13.914-9.1094 16.352-17.066 2.4336-7.9609 0.95313-16.602-3.9961-23.293-4.9531-6.6914-12.781-10.641-21.105-10.641s-16.152 3.9492-21.105 10.641c-4.9492 6.6914-6.4297 15.332-3.9961 23.293 2.4375 7.957 8.5039 14.289 16.352 17.066v54.004c0 2.5 1.0703 4.8789 2.9375 6.5391l32.215 28.637c-10.5 6.9961-20.117 15.234-28.645 24.535l-41.508-37.359v-23.855c7.8477-2.7773 13.914-9.1094 16.352-17.066 2.4336-7.9609 0.95313-16.602-3.9961-23.293-4.9531-6.6914-12.781-10.641-21.105-10.641s-16.152 3.9492-21.105 10.641c-4.9492 6.6914-6.4297 15.332-3.9961 23.293 2.4375 7.957 8.5039 14.289 16.352 17.066v27.754c0 2.4805 1.0508 4.8438 2.8945 6.5039l44.992 40.492h0.003906c-3.4961 4.7734-6.7227 9.7422-9.6602 14.875-1.0273-0.41016-2.125-0.62109-3.2305-0.62109h-78.75v17.5h73.617c-7.0703 16.66-11.172 34.426-12.129 52.5h-106.74c-2.7773-7.8477-9.1094-13.914-17.066-16.352-7.9609-2.4336-16.602-0.95313-23.293 3.9961-6.6914 4.9531-10.641 12.781-10.641 21.105s3.9492 16.152 10.641 21.105c6.6914 4.9492 15.332 6.4297 23.293 3.9961 7.957-2.4375 14.289-8.5039 17.066-16.352h106.5v8.75c0 3.457 2.0352 6.5898 5.1953 7.9961l18.648 8.2891-27.469 27.465h-22.625v17.5h26.25c2.3203 0 4.5469-0.92188 6.1875-2.5625l34.789-34.789 31.328 13.922-8.4961 8.4961c-6.5703-3.1445-14.152-3.4141-20.93-0.74609-6.7773 2.668-12.141 8.0312-14.809 14.809-2.668 6.7773-2.4023 14.359 0.73828 20.93l-32.434 32.441h-102.88c-2.1523-6.0781-6.4609-11.156-12.113-14.258-5.6523-3.1055-12.25-4.0195-18.535-2.5703-6.2812 1.4492-11.812 5.1602-15.535 10.426s-5.3789 11.715-4.6484 18.121c0.73047 6.4062 3.793 12.32 8.6016 16.617 4.8125 4.293 11.035 6.6641 17.484 6.6641zm175-402.5c-3.5391 0-6.7305-2.1328-8.082-5.4023-1.3555-3.2695-0.60938-7.0312 1.8945-9.5352s6.2656-3.25 9.5352-1.8945c3.2695 1.3516 5.4023 4.543 5.4023 8.082-0.003906 4.832-3.918 8.7461-8.75 8.75zm-52.5 52.5c-3.5391 0-6.7305-2.1328-8.082-5.4023-1.3555-3.2695-0.60938-7.0312 1.8945-9.5352s6.2656-3.25 9.5352-1.8945c3.2695 1.3516 5.4023 4.543 5.4023 8.082-0.003906 4.832-3.918 8.7461-8.75 8.75zm-122.5 192.5c-3.5391 0-6.7305-2.1328-8.082-5.4023-1.3555-3.2695-0.60938-7.0312 1.8945-9.5352s6.2656-3.25 9.5352-1.8945c3.2695 1.3516 5.4023 4.543 5.4023 8.082-0.003906 4.832-3.918 8.7461-8.75 8.75zm288.75 113.75c-3.5391 0-6.7305-2.1328-8.082-5.4023-1.3555-3.2695-0.60938-7.0312 1.8945-9.5352s6.2656-3.25 9.5352-1.8945c3.2695 1.3516 5.4023 4.543 5.4023 8.082-0.003906 4.832-3.918 8.7461-8.75 8.75zm121.31 50.062-95.215-61.609c-0.83984-7.8711-5.1875-14.945-11.836-19.242-6.6445-4.3008-14.879-5.3711-22.402-2.9141l-9.3594-6.0586v-30.238c0-0.21875-0.015625-0.4375-0.03125-0.64844 7.2852-4.2188 13.758-9.707 19.109-16.207l8.6406 12.961c1.625 2.4336 4.3555 3.8945 7.2812 3.8945h36.203c6.3711 7.168 14.055 13.051 22.641 17.328 8.6328 4.2812 15.891 10.895 20.957 19.09 5.0664 8.1953 7.7305 17.645 7.6992 27.281v23.801c0 3.3125 1.8711 6.3438 4.8359 7.8242l24.148 12.074zm18.688-137.56h-15.434l-28.316-14.156v-9.2422l43.75 12.5zm-0.29297-43.961c0.066407 1.0508 0.12109 2.1016 0.16406 3.1602 0.015625 0.45312 0.039062 0.91016 0.054687 1.3633 0.046875 1.4805 0.078125 2.957 0.078125 4.4375v5.8984l-50.094-14.312h-0.003906c-2.6406-0.75391-5.4805-0.22656-7.6758 1.4258-2.1914 1.6562-3.4805 4.2422-3.4805 6.9883v26.25c0 3.3125 1.8711 6.3438 4.8359 7.8242l35 17.5c1.2148 0.60938 2.5547 0.92578 3.9141 0.92578h17.5v90.844l-17.5-8.75v-18.395c0.042969-12.887-3.5273-25.527-10.301-36.488-6.7734-10.961-16.484-19.805-28.031-25.527-9.5391-4.7305-17.562-12.039-23.16-21.098-5.5977-9.0586-8.543-19.504-8.5078-30.148v-85.027l17.75 8.875v-0.003906c0.98438 11.105 5.0273 21.719 11.684 30.66s15.664 15.863 26.02 19.988l31.695 12.754c0.019531 0.28516 0.039062 0.57031 0.058593 0.85547zm-113.18-128.51c25.008 4.9023 48.215 16.496 67.145 33.555 18.93 17.055 32.875 38.934 40.344 63.297 1.0742 3.5547 2 7.1602 2.7852 10.797l-22.32-8.9805 0.003906-0.003907c-7.9883-3.1836-14.828-8.6953-19.641-15.82-4.8125-7.1211-7.375-15.527-7.3477-24.125 0-3.3125-1.8711-6.3438-4.8359-7.8242l-35-17.5c-2.7148-1.3594-5.9336-1.2148-8.5156 0.38281-2.5781 1.5938-4.1484 4.4102-4.1484 7.4414v99.188c-0.015625 11.086 2.4297 22.035 7.1562 32.062h-19.973l-10.527-15.789c7.5586-17.309 7.793-36.938 0.65625-54.426-7.1406-17.484-21.051-31.336-38.562-38.41v-18.602zm-26.531-2.5312c0.84766 0 1.6914 0.035156 2.5352 0.050781l-37.426 32.086-22.387-19.898c18.02-8.0625 37.535-12.234 57.277-12.238zm-73.773 20.992 30.023 26.688v14.137c-12.031-1.5469-24.262 0.089844-35.465 4.7422l-23.77-21.387c8.5938-9.3516 18.422-17.484 29.211-24.18zm-46.625 139.53-19.602-8.7109v-3.0625h19.715c0.77344 2.9766 1.7461 5.9023 2.9102 8.75zm-2.1016-29.273h-17.227c0.82031-13.719 3.6797-27.238 8.4883-40.113l13.863 13.863c-3.3906 8.3359-5.1289 17.25-5.125 26.25zm-1.0312-57.156c2.832-5.3086 6.0078-10.426 9.5-15.324l18.902 17.012c-5.0117 3.8594-9.4844 8.3711-13.293 13.422zm18.531 57.156c0-13.926 5.5312-27.277 15.375-37.125 9.8477-9.8438 23.199-15.375 37.125-15.375s27.277 5.5312 37.125 15.375c9.8438 9.8477 15.375 23.199 15.375 37.125s-5.5312 27.277-15.375 37.125c-9.8477 9.8438-23.199 15.375-37.125 15.375-13.918-0.015625-27.262-5.5508-37.105-15.395s-15.379-23.188-15.395-37.105zm0 87.5c3.5391 0 6.7305 2.1328 8.082 5.4023 1.3555 3.2695 0.60938 7.0312-1.8945 9.5352s-6.2656 3.25-9.5352 1.8945c-3.2695-1.3516-5.4023-4.543-5.4023-8.082 0.003906-4.832 3.918-8.7461 8.75-8.75zm-183.75 52.5c3.5391 0 6.7305 2.1328 8.082 5.4023 1.3555 3.2695 0.60938 7.0312-1.8945 9.5352s-6.2656 3.25-9.5352 1.8945c-3.2695-1.3516-5.4023-4.543-5.4023-8.082 0.003906-4.832 3.918-8.7461 8.75-8.75z"/>
  <path d="m140 385c5.4258-0.007812 10.719-1.6914 15.148-4.8242 4.4297-3.1367 7.7812-7.5625 9.5977-12.676h62.754v-17.5h-62.754c-2.1523-6.0781-6.4609-11.156-12.113-14.258-5.6523-3.1055-12.25-4.0195-18.535-2.5703-6.2812 1.4492-11.812 5.1602-15.535 10.426s-5.3789 11.715-4.6484 18.121c0.73047 6.4062 3.793 12.32 8.6016 16.617 4.8125 4.293 11.035 6.6641 17.484 6.6641zm0-35c3.5391 0 6.7305 2.1328 8.082 5.4023 1.3555 3.2695 0.60938 7.0312-1.8945 9.5352s-6.2656 3.25-9.5352 1.8945c-3.2695-1.3516-5.4023-4.543-5.4023-8.082 0.003906-4.832 3.918-8.7461 8.75-8.75z"/>
  <path d="m140 245c5.4258-0.007812 10.719-1.6914 15.148-4.8242 4.4297-3.1367 7.7812-7.5625 9.5977-12.676h27.754v-17.5h-27.754c-2.1523-6.0781-6.4609-11.156-12.113-14.258-5.6523-3.1055-12.25-4.0195-18.535-2.5703-6.2812 1.4492-11.812 5.1602-15.535 10.426s-5.3789 11.715-4.6484 18.121c0.73047 6.4062 3.793 12.32 8.6016 16.617 4.8125 4.293 11.035 6.6641 17.484 6.6641zm0-35c3.5391 0 6.7305 2.1328 8.082 5.4023 1.3555 3.2695 0.60938 7.0312-1.8945 9.5352s-6.2656 3.25-9.5352 1.8945c-3.2695-1.3516-5.4023-4.543-5.4023-8.082 0.003906-4.832 3.918-8.7461 8.75-8.75z"/>
  <path d="m367.5 393.75h17.5v17.5h-17.5z"/>
  <path d="m350 501.82 33.082-41.352c1.2422-1.5508 1.918-3.4805 1.918-5.4688v-26.25h-17.5v23.18l-33.082 41.352c-1.2422 1.5508-1.918 3.4805-1.918 5.4688v43.75h17.5z"/>
  <path d="m332.5 455v-17.5h-17.5v14.43l-33.082 41.352c-1.2422 1.5508-1.918 3.4805-1.918 5.4688v43.75h17.5v-40.68l33.082-41.352c1.2422-1.5508 1.918-3.4805 1.918-5.4688z"/>
<path d="m463.75 87.5v-19.004c7.8477-2.7773 13.914-9.1094 16.352-17.066 2.4336-7.9609 0.95313-16.602-3.9961-23.293-4.9531-6.6914-12.781-10.641-21.105-10.641s-16.152 3.9492-21.105 10.641c-4.9492 6.6914-6.4297 15.332-3.9961 23.293 2.4375 7.957 8.5039 14.289 16.352 17.066v19.004zm-8.75-52.5c3.5391 0 6.7305 2.1328 8.082 5.4023 1.3555 3.2695 0.60938 7.0312-1.8945 9.5352s-6.2656 3.25-9.5352 1.8945c-3.2695-1.3516-5.4023-4.543-5.4023-8.082 0.003906-4.832 3.918-8.7461 8.75-8.75z"/>

 </g>
</svg>
